<svg width="32" height="32" viewBox="0 0 32 32" fill="none" xmlns="http://www.w3.org/2000/svg">
<rect width="32" height="32" rx="16" fill="#7DF7FF"/>
<path fill-rule="evenodd" clip-rule="evenodd" d="M10.4739 8.73575C10.4699 8.71606 10.4667 8.69588 10.4648 8.67594C10.4638 8.66585 10.463 8.65575 10.4625 8.64566C10.4621 8.63582 10.4618 8.62548 10.4618 8.61538C10.4618 8.60529 10.4621 8.5952 10.4625 8.58511C10.463 8.57502 10.4638 8.56492 10.4648 8.55483C10.4667 8.53489 10.4699 8.51495 10.4739 8.49526C10.4778 8.47557 10.4827 8.45588 10.4886 8.43668C10.4945 8.41772 10.5012 8.39852 10.5088 8.38006C10.5165 8.3616 10.5253 8.34338 10.5347 8.32566C10.544 8.30794 10.5544 8.29046 10.5654 8.27372C10.5765 8.25723 10.5886 8.24074 10.6014 8.22523C10.6078 8.21735 10.6144 8.20972 10.6211 8.20234C10.6277 8.19471 10.6349 8.18732 10.642 8.18018L10.6427 8.17949C10.6496 8.17281 10.6568 8.16592 10.6639 8.15926C10.6713 8.15262 10.6792 8.14597 10.6868 8.13957C10.7023 8.12702 10.7188 8.11495 10.7355 8.10388C10.7523 8.0928 10.7695 8.08246 10.7872 8.07286C10.8049 8.06351 10.8232 8.05489 10.8416 8.04726C10.8603 8.03963 10.8793 8.03274 10.8985 8.02683C10.9177 8.02117 10.9374 8.016 10.9568 8.01206C10.9765 8.00812 10.9967 8.00517 11.0166 8.0032C11.0267 8.00222 11.0368 8.00123 11.0467 8.00074C11.0669 7.99975 11.0873 7.99975 11.1075 8.00074C11.1176 8.00123 11.1277 8.00222 11.1377 8.0032C11.1574 8.00517 11.1776 8.00812 11.1973 8.01206C11.217 8.016 11.2367 8.02117 11.2559 8.02683C11.2749 8.03274 11.2941 8.03963 11.3125 8.04726C11.331 8.05489 11.3492 8.06351 11.3669 8.07286C11.3846 8.08246 11.4021 8.0928 11.4189 8.10388C11.4356 8.11495 11.4518 8.12702 11.4673 8.13957C11.4752 8.14597 11.4829 8.15262 11.4902 8.15926C11.4979 8.16615 11.5053 8.17329 11.5121 8.18018C11.5193 8.18732 11.5264 8.19471 11.5331 8.20234C11.54 8.20972 11.5466 8.21735 11.553 8.22523C11.5656 8.24074 11.5776 8.25723 11.5887 8.27372C11.5998 8.29046 11.6101 8.30794 11.6197 8.32566C11.6291 8.34338 11.6377 8.3616 11.6453 8.38006C11.6529 8.39852 11.6598 8.41772 11.6657 8.43668C11.6717 8.45588 11.6766 8.47557 11.6805 8.49526C11.6845 8.51495 11.6874 8.53489 11.6896 8.55483C11.6906 8.56492 11.6913 8.57502 11.6918 8.58511C11.6923 8.5952 11.6926 8.60529 11.6926 8.61538C11.6926 8.62548 11.6923 8.63582 11.6918 8.64566C11.6913 8.65575 11.6906 8.66585 11.6896 8.67594C11.6874 8.69588 11.6845 8.71606 11.6805 8.73575C11.6766 8.7552 11.6717 8.77489 11.6657 8.79409C11.6598 8.81329 11.6529 8.83225 11.6453 8.85071C11.6377 8.86942 11.6291 8.88763 11.6197 8.90535C11.6101 8.92308 11.5998 8.94031 11.5887 8.95705C11.5776 8.97378 11.5656 8.99003 11.553 9.00554C11.5466 9.01342 11.54 9.02105 11.5331 9.02868C11.5264 9.03606 11.5193 9.04345 11.5121 9.05058C11.5053 9.05772 11.4979 9.06462 11.4902 9.07151C11.4829 9.07815 11.4752 9.0848 11.4673 9.0912C11.4518 9.104 11.4356 9.11582 11.4189 9.12714C11.4021 9.13822 11.3846 9.14855 11.3669 9.15791C11.3492 9.16726 11.331 9.17612 11.3125 9.18375C11.2941 9.19138 11.2749 9.19828 11.2559 9.20394C11.2367 9.20985 11.217 9.21477 11.1973 9.21871C11.1776 9.22265 11.1574 9.22585 11.1377 9.22782C11.1277 9.2288 11.1176 9.22954 11.1075 9.23003C11.0974 9.23052 11.0873 9.23077 11.0772 9.23077C11.0671 9.23077 11.0568 9.23052 11.0467 9.23003C11.0368 9.22954 11.0267 9.2288 11.0166 9.22782C10.9967 9.22585 10.9765 9.22265 10.9568 9.21871C10.9374 9.21477 10.9177 9.20985 10.8985 9.20394C10.8793 9.19828 10.8603 9.19138 10.8419 9.18375C10.8232 9.17612 10.8049 9.16726 10.7872 9.15791C10.7695 9.14855 10.7523 9.13822 10.7355 9.12714C10.7188 9.11582 10.7025 9.104 10.687 9.0912C10.6792 9.0848 10.6715 9.07815 10.6639 9.07151C10.6565 9.06462 10.6491 9.05772 10.642 9.05058C10.6349 9.04345 10.6277 9.03606 10.6211 9.02868C10.6144 9.02105 10.6078 9.01342 10.6014 9.00554C10.5886 8.99003 10.5765 8.97378 10.5654 8.95705C10.5544 8.94031 10.544 8.92308 10.5347 8.90535C10.5253 8.88763 10.5165 8.86942 10.5088 8.85071C10.5012 8.83225 10.4945 8.81329 10.4886 8.79409C10.4827 8.77489 10.4778 8.7552 10.4739 8.73575ZM17.8462 9.84615H20.9231C22.6196 9.84615 24 11.2266 24 12.9231V17.8462C24 19.5426 22.6196 20.9231 20.9231 20.9231H19.5692V22.1538C19.5692 22.4938 19.2938 22.7692 18.9538 22.7692C18.6139 22.7692 18.3385 22.4938 18.3385 22.1538V20.9231H13.6615V22.1538C13.6615 22.4938 13.3861 22.7692 13.0462 22.7692C12.7062 22.7692 12.4308 22.4938 12.4308 22.1538V20.9231H11.0769C9.38043 20.9231 8 19.5426 8 17.8462V12.9231C8 11.2266 9.38043 9.84615 11.0769 9.84615H12.6934H16.6154C16.6154 9.50671 16.3394 9.23077 16 9.23077H12.9231C12.5831 9.23077 12.3077 8.95532 12.3077 8.61538C12.3077 8.27545 12.5831 8 12.9231 8H16C17.0181 8 17.8462 8.82806 17.8462 9.84615ZM20.9231 19.6923C21.9412 19.6923 22.7692 18.8642 22.7692 17.8462V12.9231C22.7692 11.905 21.9412 11.0769 20.9231 11.0769H17.8462H12.6934H11.0769C10.0588 11.0769 9.23077 11.905 9.23077 12.9231V17.8462C9.23077 18.8642 10.0588 19.6923 11.0769 19.6923H20.9231ZM12.7381 13.4725C12.4978 13.2323 12.1082 13.2323 11.8677 13.4725C11.6274 13.7127 11.6274 14.1024 11.8677 14.3429L12.9094 15.3846L11.8677 16.4263C11.6274 16.6666 11.6274 17.0563 11.8677 17.2967C11.9878 17.4169 12.1453 17.4769 12.3029 17.4769C12.4604 17.4769 12.618 17.4169 12.7381 17.2967L14.215 15.8198C14.4553 15.5796 14.4553 15.1899 14.215 14.9494L12.7381 13.4725ZM18.8316 13.7229C18.9335 13.3987 19.2791 13.2185 19.6033 13.3207C19.9275 13.4229 20.1076 13.7685 20.0055 14.0924L19.0758 17.0462C18.9931 17.3089 18.7506 17.477 18.4889 17.477C18.4279 17.477 18.3656 17.4679 18.3041 17.4485C17.9799 17.3465 17.7997 17.0009 17.9019 16.6768L18.8316 13.7229Z" fill="#292F35"/>
</svg>
